<?xml version="1.0" standalone="no"?>
<!DOCTYPE svg PUBLIC "-//W3C//DTD SVG 20010904//EN"
 "http://www.w3.org/TR/2001/REC-SVG-20010904/DTD/svg10.dtd">
<svg version="1.0" xmlns="http://www.w3.org/2000/svg"
 width="450.000000pt" height="600.000000pt" viewBox="0 0 450.000000 600.000000"
 preserveAspectRatio="xMidYMid meet">
<metadata>
Created by potrace 1.16, written by Peter Selinger 2001-2019
</metadata>
<g transform="translate(0.000000,600.000000) scale(0.100000,-0.100000)"
fill="#000000" stroke="none">
<path d="M0 3000 l0 -3000 2250 0 2250 0 0 3000 0 3000 -2250 0 -2250 0 0
-3000z m2558 1710 c-2 -292 0 -530 5 -530 4 0 7 236 7 525 0 289 2 525 4 525
2 0 93 -50 203 -111 436 -244 718 -366 1140 -495 l85 -26 -6 -30 c-3 -17 -6
-37 -6 -44 0 -8 -8 -14 -17 -15 -15 0 -15 -1 2 -8 19 -8 22 -32 49 -417 15
-225 35 -494 42 -599 9 -120 18 -552 25 -1175 6 -542 15 -989 19 -993 4 -5 22
-1 40 8 l33 17 -7 -143 c-4 -79 -13 -215 -20 -302 -14 -180 -19 -192 -105
-244 -174 -105 -1382 -406 -2236 -558 -162 -29 -189 -28 -271 11 -75 35 -99
58 -314 284 -308 325 -518 536 -610 613 -208 175 -316 332 -353 517 -36 176
-70 554 -88 977 -12 281 -8 459 26 1378 40 1068 40 1068 67 1073 10 2 18 -2
18 -8 0 -7 -7 -9 -17 -6 -15 6 -15 4 2 -14 18 -19 18 -29 -4 -373 -67 -1092
-72 -1201 -72 -1567 -1 -349 7 -532 32 -813 12 -123 13 -129 41 -148 l28 -20
0 138 c1 424 24 1326 50 1941 17 386 30 712 30 723 0 18 7 15 51 -23 128 -109
295 -238 373 -286 84 -53 344 -178 352 -169 3 2 -10 10 -28 17 -104 42 -266
125 -344 176 -87 57 -292 217 -366 287 -41 37 -41 53 -4 125 14 27 22 32 54
32 136 0 741 47 967 75 149 19 620 102 900 159 116 24 213 44 218 45 4 0 6
-238 5 -529z"/>
<path d="M1520 4935 c-108 -49 -160 -170 -160 -374 0 -57 7 -151 16 -208 8
-58 13 -107 11 -109 -2 -2 -39 10 -82 26 -43 17 -79 29 -81 27 -2 -2 35 -19
83 -38 l88 -34 -3 -105 c-2 -58 -14 -467 -27 -910 -14 -443 -25 -835 -25 -871
l0 -66 61 -24 c34 -13 63 -28 64 -34 2 -5 13 -374 25 -820 12 -445 24 -812 25
-813 2 -2 38 2 79 9 63 10 76 15 71 28 -44 142 -67 1526 -32 1971 22 275 34
554 47 1115 7 248 13 456 16 463 2 8 34 13 106 14 l103 2 -98 5 -98 6 51 79
c135 215 178 444 104 563 -43 70 -117 105 -227 110 -59 2 -92 -1 -117 -12z
m200 -123 c36 -35 60 -91 60 -137 0 -81 -77 -257 -146 -334 -81 -90 -107 -69
-145 114 -27 129 -25 217 6 280 42 86 77 115 143 115 38 0 50 -6 82 -38z"/>
</g>
</svg>
